<svg width="131" height="129" viewBox="0 0 131 129" fill="none" xmlns="http://www.w3.org/2000/svg">
<path fill-rule="evenodd" clip-rule="evenodd" d="M118.003 4.29547L127.244 7.67055L126.059 13.04L118.003 4.29547Z" fill="#274D3A"/>
<path fill-rule="evenodd" clip-rule="evenodd" d="M126.059 13.04L127.244 7.67059L130.405 14.4208L126.059 13.04Z" fill="#216140"/>
<path fill-rule="evenodd" clip-rule="evenodd" d="M31.0865 48.3032L32.0083 46.8129L33.6984 48.8072L31.0865 48.3032Z" fill="#F24942"/>
<path fill-rule="evenodd" clip-rule="evenodd" d="M3.25559 39.2737L0.994873 41.7721L6.26256 43.4816L3.25559 39.2737Z" fill="#F24942"/>
<path fill-rule="evenodd" clip-rule="evenodd" d="M11.596 43.9199L10.4108 49.1578L19.0586 47.4922L11.596 43.9199Z" fill="#F24942"/>
<path fill-rule="evenodd" clip-rule="evenodd" d="M22.9655 55.6013L22.6582 51.6564L28.4307 53.0809L22.9655 55.6013Z" fill="#F24942"/>
<path fill-rule="evenodd" clip-rule="evenodd" d="M37.8466 61.0145L36.4858 57.2887L42.4339 57.0915L37.8466 61.0145Z" fill="#F24942"/>
<path fill-rule="evenodd" clip-rule="evenodd" d="M67.7409 39.3395L67.5214 35.3069L72.7233 36.7314L67.7409 39.3395Z" fill="#F4594C"/>
<path fill-rule="evenodd" clip-rule="evenodd" d="M72.7232 36.7534L73.2939 42.4296L70.1552 42.3201L67.9164 40.8078L67.7408 39.3395L72.7232 36.7534Z" fill="#B34D46"/>
<path fill-rule="evenodd" clip-rule="evenodd" d="M88.1532 51.9411L81.1077 45.7388L73.2939 42.4295L75.5108 44.9937L80.9979 49.092L88.1532 51.9411Z" fill="#70383C"/>
<path fill-rule="evenodd" clip-rule="evenodd" d="M88.1532 51.9412L93.3331 49.0921L103.386 52.0289L88.1532 51.9412Z" fill="#F24942"/>
<path fill-rule="evenodd" clip-rule="evenodd" d="M43.0706 50.4946L42.5877 44.7964L52.3988 47.1634L43.0706 50.4946Z" fill="#F24942"/>
<path fill-rule="evenodd" clip-rule="evenodd" d="M73.2939 42.4296L72.7232 36.7534L82.4904 39.1641L73.2939 42.4296Z" fill="#F24942"/>
<path fill-rule="evenodd" clip-rule="evenodd" d="M75.8181 58.4284L78.0129 50.2318L71.8673 54.1986L75.8181 58.4284Z" fill="#F24942"/>
<path fill-rule="evenodd" clip-rule="evenodd" d="M68.531 46.1992L59.2028 49.5305L67.0604 52.8179L68.531 46.1992Z" fill="#F24942"/>
<path fill-rule="evenodd" clip-rule="evenodd" d="M82.5124 39.1641L73.2939 42.4296L81.0857 45.7608L82.5124 39.1641Z" fill="#BA4844"/>
<path fill-rule="evenodd" clip-rule="evenodd" d="M56.8763 60.8611L62.2538 58.0339L49.3479 54.615L56.8763 60.8611Z" fill="#F24942"/>
<path fill-rule="evenodd" clip-rule="evenodd" d="M88.1532 51.9413L93.3331 49.0922L81.1077 45.739L88.1532 51.9413Z" fill="#B14E43"/>
<path fill-rule="evenodd" clip-rule="evenodd" d="M81.0856 45.7608L82.4903 39.1641L93.3111 49.0921L81.0856 45.7608Z" fill="#F24942"/>
<path fill-rule="evenodd" clip-rule="evenodd" d="M69.826 31.9099L77.5958 32.2168L70.0235 20.908L69.826 31.9099Z" fill="#F4594C"/>
<path fill-rule="evenodd" clip-rule="evenodd" d="M54.1327 41.9256L58.8736 43.3063L64.3169 38.4628L56.1081 38.4409L54.1327 41.9256Z" fill="#F24942"/>
<path fill-rule="evenodd" clip-rule="evenodd" d="M67.5214 35.3288L72.7233 36.7533L77.5959 32.2167L69.826 31.9099L67.5214 35.3288Z" fill="#9E4C40"/>
<path fill-rule="evenodd" clip-rule="evenodd" d="M72.7232 36.7533L87.3849 23.0995L82.5123 39.1641L72.7232 36.7533Z" fill="#F46544"/>
<path fill-rule="evenodd" clip-rule="evenodd" d="M77.5959 32.2167L70.0236 20.908L78.3641 16.3494L87.385 23.0777L77.5959 32.2167Z" fill="#FFB438"/>
<path fill-rule="evenodd" clip-rule="evenodd" d="M56.4373 31.3401L64.6022 26.8911L62.978 21.5874L56.4373 31.3401Z" fill="#F24942"/>
<path fill-rule="evenodd" clip-rule="evenodd" d="M70.0236 20.9079L78.3641 16.3493L76.257 11.3525L70.0236 20.9079Z" fill="#F98E3D"/>
<path fill-rule="evenodd" clip-rule="evenodd" d="M78.3422 16.3715L76.2351 11.3746L80.9321 7.14478L89.7116 10.2788L78.3422 16.3715Z" fill="#CC6A44"/>
<path fill-rule="evenodd" clip-rule="evenodd" d="M87.385 23.0996L78.3641 16.3713L89.7335 10.3005L87.385 23.0996Z" fill="#F98E3D"/>
<path fill-rule="evenodd" clip-rule="evenodd" d="M87.385 23.0995L96.0986 36.4684L82.5124 39.1641L87.385 23.0995Z" fill="#F98E3D"/>
<path fill-rule="evenodd" clip-rule="evenodd" d="M93.3111 49.114L82.4904 39.186L96.0767 36.4904L93.3111 49.114Z" fill="#FB9940"/>
<path fill-rule="evenodd" clip-rule="evenodd" d="M93.3112 49.114L96.0767 36.4904L106.853 45.3006L93.3112 49.114Z" fill="#F56A40"/>
<path fill-rule="evenodd" clip-rule="evenodd" d="M93.3112 49.114L106.875 45.3006L103.364 52.0508L93.3112 49.114Z" fill="#F98E3D"/>
<path fill-rule="evenodd" clip-rule="evenodd" d="M103.364 52.0509L106.875 45.3007L117.938 43.7665L103.364 52.0509Z" fill="#FFF326"/>
<path fill-rule="evenodd" clip-rule="evenodd" d="M106.875 45.3006L112.209 41.2461L117.938 43.7664L106.875 45.3006Z" fill="#D2DF3D"/>
<path fill-rule="evenodd" clip-rule="evenodd" d="M117.937 43.7666L112.209 41.2462L118.815 36.2274L117.937 43.7666Z" fill="#2A9451"/>
<path fill-rule="evenodd" clip-rule="evenodd" d="M118.816 36.2275L117.938 43.7447L126.783 30.8799L118.816 36.2275Z" fill="#284F3C"/>
<path fill-rule="evenodd" clip-rule="evenodd" d="M126.761 30.9019L118.794 36.2275L117.125 27.746L126.761 30.9019Z" fill="#1C352A"/>
<path fill-rule="evenodd" clip-rule="evenodd" d="M117.147 27.746L118.815 36.2275L109.795 31.0991L117.147 27.746Z" fill="#00AD5E"/>
<path fill-rule="evenodd" clip-rule="evenodd" d="M118.815 36.2274L109.795 31.0991L106.875 45.3007L118.815 36.2274Z" fill="#FFF326"/>
<path fill-rule="evenodd" clip-rule="evenodd" d="M96.0986 36.4685L109.795 31.0991L106.875 45.3007L96.0986 36.4685Z" fill="#FC9D3B"/>
<path fill-rule="evenodd" clip-rule="evenodd" d="M89.7115 10.2786L80.932 7.14459L83.4781 4.93106L99.6104 0.0218506L89.7115 10.2786Z" fill="#F98E3D"/>
<path fill-rule="evenodd" clip-rule="evenodd" d="M89.7115 10.2787L102.617 16.3714L99.6323 0L89.7115 10.2787Z" fill="#F7DE33"/>
<path fill-rule="evenodd" clip-rule="evenodd" d="M99.6323 0.0218506L102.617 16.3932L103.276 3.46269L99.6323 0.0218506Z" fill="#84C551"/>
<path fill-rule="evenodd" clip-rule="evenodd" d="M89.7115 10.2786L102.617 16.3713L87.3849 23.0996L89.7115 10.2786Z" fill="#C16844"/>
<path fill-rule="evenodd" clip-rule="evenodd" d="M87.3849 23.0997L96.0986 36.4685L102.639 16.3934L87.3849 23.0997Z" fill="#D5A244"/>
<path fill-rule="evenodd" clip-rule="evenodd" d="M96.0986 36.4685L109.795 31.0991L102.639 16.3934L96.0986 36.4685Z" fill="#FFF326"/>
<path fill-rule="evenodd" clip-rule="evenodd" d="M109.795 31.0991L117.147 27.7459L121.603 24.1517L102.617 16.3934L109.795 31.0991Z" fill="#D2D040"/>
<path fill-rule="evenodd" clip-rule="evenodd" d="M99.6323 0.0218506L103.276 3.46268L117.74 5.96112L118.003 4.31741L112.472 1.24915L99.6323 0.0218506Z" fill="#2A9451"/>
<path fill-rule="evenodd" clip-rule="evenodd" d="M102.639 16.3935L103.298 3.46295L117.762 5.96139L118.091 9.92821L102.639 16.3935Z" fill="#45B759"/>
<path fill-rule="evenodd" clip-rule="evenodd" d="M127.551 27.0226L126.783 30.9017L117.147 27.7458L121.603 24.1516L127.551 27.0226Z" fill="#2D6046"/>
<path fill-rule="evenodd" clip-rule="evenodd" d="M122.569 11.9223L126.037 13.04L118.003 4.29547L117.74 5.93918L118.069 9.906L122.569 11.9223Z" fill="#216140"/>
<path fill-rule="evenodd" clip-rule="evenodd" d="M121.603 24.1298L126.41 15.8455L127.529 27.0008L121.603 24.1298Z" fill="#1A8056"/>
<path fill-rule="evenodd" clip-rule="evenodd" d="M122.569 11.9224L118.069 9.92804L102.617 16.3933L112.999 20.6231L122.569 11.9224Z" fill="#203B2E"/>
<path fill-rule="evenodd" clip-rule="evenodd" d="M121.603 24.1298L126.41 15.8455L112.999 20.6232L121.603 24.1298Z" fill="#2BA85B"/>
<path fill-rule="evenodd" clip-rule="evenodd" d="M130.405 14.4427L122.569 11.9224L112.999 20.645L130.405 14.4427Z" fill="#45B759"/>
<path fill-rule="evenodd" clip-rule="evenodd" d="M127.551 27.0226L130.404 14.4208L126.41 15.8673L127.551 27.0226Z" fill="#24664C"/>
<path d="M3.98266 103.494C1.99508 101.573 0.994881 99.0122 0.994881 95.7984V81.3171C0.994881 78.1033 1.98226 75.5553 3.95701 73.6731C5.93176 71.7909 8.5733 70.8434 11.8816 70.8434C15.1643 70.8434 17.7931 71.7909 19.7806 73.6731C21.7682 75.5553 22.7684 78.1033 22.7684 81.3171V81.5603C22.7684 81.7908 22.7043 81.9829 22.5632 82.1365C22.435 82.2902 22.2427 82.3542 22.0119 82.3542L14.1641 82.5975C13.664 82.5975 13.4204 82.367 13.4204 81.906V80.6641C13.4204 80.1007 13.2794 79.6525 12.9973 79.3196C12.7151 78.9867 12.3433 78.8203 11.8816 78.8203C11.42 78.8203 11.0481 78.9867 10.766 79.3196C10.4839 79.6525 10.3429 80.1007 10.3429 80.6641V96.5922C10.3429 97.1556 10.4839 97.5909 10.766 97.911C11.0481 98.2311 11.42 98.3848 11.8816 98.3848C12.3433 98.3848 12.7151 98.2311 12.9973 97.911C13.2794 97.5909 13.4204 97.1556 13.4204 96.5922V95.2478C13.4204 94.7869 13.664 94.5564 14.1641 94.5564L22.0119 94.7997C22.2427 94.7997 22.4222 94.8765 22.5632 95.0173C22.6915 95.171 22.7684 95.3631 22.7684 95.5935V95.7984C22.7684 97.911 22.3068 99.7804 21.3963 101.381C20.4859 102.981 19.2036 104.223 17.5751 105.081C15.9337 105.939 14.0359 106.375 11.8816 106.375C8.61177 106.375 5.97023 105.414 3.98266 103.494Z" fill="#297750"/>
<path d="M25.1534 105.773C25.0252 105.645 24.9482 105.453 24.9482 105.222V71.9829C24.9482 71.7524 25.0124 71.5732 25.1534 71.4323C25.2816 71.3043 25.474 71.2275 25.7048 71.2275H33.5525C33.7833 71.2275 33.9629 71.2915 34.1039 71.4323C34.2321 71.5604 34.3091 71.7524 34.3091 71.9829V105.235C34.3091 105.465 34.245 105.645 34.1039 105.785C33.9757 105.914 33.7833 105.99 33.5525 105.99H25.7048C25.474 105.978 25.2816 105.914 25.1534 105.773Z" fill="#297750"/>
<path d="M59.3014 71.4323C59.4296 71.5603 59.5065 71.7524 59.5065 71.9828V78.4873C59.5065 78.7178 59.4424 78.897 59.3014 79.0378C59.1731 79.1659 58.9808 79.2427 58.75 79.2427H52.8898C52.6847 79.2427 52.5949 79.3451 52.5949 79.5372V105.235C52.5949 105.465 52.5308 105.645 52.3897 105.785C52.2615 105.913 52.0692 105.99 51.8383 105.99H43.9906C43.7598 105.99 43.5803 105.926 43.4392 105.785C43.311 105.657 43.2341 105.465 43.2341 105.235V79.5244C43.2341 79.3195 43.1315 79.2299 42.9391 79.2299H37.2201C36.9892 79.2299 36.8097 79.1659 36.6687 79.025C36.5404 78.897 36.4635 78.7049 36.4635 78.4745V71.97C36.4635 71.7396 36.5276 71.5603 36.6687 71.4195C36.7969 71.2914 36.9892 71.2146 37.2201 71.2146H58.7372C58.9808 71.2402 59.1603 71.3042 59.3014 71.4323Z" fill="#297750"/>
<path d="M74.4581 105.337L71.4318 92.8791C71.3677 92.7126 71.3036 92.6358 71.2267 92.6358C71.0984 92.6358 71.0215 92.7382 71.0215 92.9303V105.235C71.0215 105.465 70.9574 105.645 70.8163 105.785C70.6881 105.914 70.4957 105.99 70.2649 105.99H62.4172C62.1864 105.99 62.0069 105.926 61.8658 105.785C61.7376 105.657 61.6606 105.465 61.6606 105.235V71.9829C61.6606 71.7524 61.7248 71.5732 61.8658 71.4323C61.9941 71.3043 62.1864 71.2275 62.4172 71.2275H73.5989C75.5865 71.2275 77.3561 71.7012 78.8948 72.6359C80.4336 73.5834 81.639 74.8894 82.4981 76.5539C83.3573 78.2313 83.7932 80.1391 83.7932 82.2901C83.7932 84.1083 83.4727 85.7344 82.8443 87.1813C82.216 88.6153 81.3056 89.7805 80.113 90.6768C79.9848 90.7792 79.9335 90.9072 79.9592 91.0737L83.9856 105.12C84.0241 105.184 84.0369 105.273 84.0369 105.363C84.0369 105.76 83.8061 105.965 83.3444 105.965H75.2403C74.8171 105.978 74.5606 105.76 74.4581 105.337ZM71.3292 79.23C71.1241 79.23 71.0343 79.3324 71.0343 79.5245V85.2351C71.0343 85.4399 71.1369 85.5296 71.3292 85.5296H71.9704C72.7013 85.5296 73.2912 85.2607 73.7656 84.7101C74.2272 84.1595 74.4581 83.3913 74.4581 82.4054C74.4581 81.3811 74.2401 80.6 73.7913 80.0494C73.3425 79.4989 72.7398 79.23 71.9832 79.23H71.3292Z" fill="#297750"/>
<path d="M91.051 105.03C89.4225 104.134 88.1658 102.879 87.2682 101.253C86.3706 99.6268 85.9218 97.7574 85.9218 95.6447V71.9829C85.9218 71.7524 85.9859 71.5732 86.127 71.4323C86.2552 71.3043 86.4476 71.2275 86.6784 71.2275H94.5261C94.7569 71.2275 94.9364 71.2915 95.0775 71.4323C95.2057 71.5604 95.2826 71.7524 95.2826 71.9829V96.5538C95.2826 97.1172 95.4109 97.5653 95.6801 97.8982C95.9494 98.2311 96.2957 98.3976 96.7188 98.3976C97.1548 98.3976 97.4882 98.2311 97.7318 97.8982C97.9755 97.5653 98.1037 97.1172 98.1037 96.5538V71.9829C98.1037 71.7524 98.1678 71.5732 98.3089 71.4323C98.4371 71.3043 98.6295 71.2275 98.8603 71.2275H106.708C106.939 71.2275 107.118 71.2915 107.259 71.4323C107.388 71.5604 107.465 71.7524 107.465 71.9829V95.6575C107.465 97.7702 107.016 99.6396 106.118 101.266C105.22 102.892 103.964 104.147 102.335 105.043C100.707 105.939 98.8346 106.387 96.7188 106.387C94.5645 106.374 92.6796 105.926 91.051 105.03Z" fill="#297750"/>
<path d="M114.761 105.184C113.171 104.39 111.94 103.289 111.055 101.88C110.183 100.472 109.734 98.8585 109.734 97.0403V95.5039C109.734 95.2734 109.798 95.0941 109.939 94.9533C110.068 94.8252 110.26 94.7484 110.491 94.7484H118.249C118.48 94.7484 118.659 94.8124 118.8 94.9533C118.928 95.0813 119.005 95.2734 119.005 95.5039V96.5922C119.005 97.1172 119.134 97.5525 119.403 97.8854C119.672 98.2183 120.006 98.3848 120.403 98.3848C120.801 98.3848 121.134 98.2311 121.403 97.9366C121.673 97.6421 121.801 97.258 121.801 96.7971C121.801 96.2337 121.532 95.6831 121.006 95.1325C120.48 94.582 119.364 93.7241 117.672 92.5333C116.018 91.381 114.646 90.3182 113.568 89.3579C112.491 88.3976 111.555 87.1941 110.76 85.7344C109.965 84.2747 109.568 82.6102 109.568 80.728C109.568 78.7818 110.004 77.0533 110.888 75.568C111.76 74.0827 113.004 72.9176 114.62 72.0981C116.223 71.2659 118.069 70.8561 120.159 70.8561C122.275 70.8561 124.147 71.2659 125.75 72.0981C127.353 72.9304 128.597 74.0827 129.482 75.568C130.354 77.0533 130.803 78.7818 130.803 80.728V81.8164C130.803 82.0468 130.738 82.2261 130.597 82.3669C130.469 82.495 130.277 82.5718 130.046 82.5718H122.339C122.109 82.5718 121.929 82.5078 121.788 82.3669C121.66 82.2389 121.583 82.0468 121.583 81.8164V80.5232C121.583 80.0238 121.455 79.6269 121.185 79.3068C120.916 78.9867 120.57 78.833 120.147 78.833C119.711 78.833 119.377 78.9995 119.134 79.3324C118.89 79.6653 118.762 80.1134 118.762 80.6768C118.762 81.3426 119.031 81.97 119.557 82.5846C120.082 83.1992 121.147 84.0827 122.737 85.235C124.853 86.7843 126.456 88.0519 127.533 89.0122C128.61 89.9725 129.456 91.0609 130.072 92.2644C130.687 93.468 130.995 94.8893 130.995 96.5026C130.995 99.5115 130.02 101.906 128.058 103.698C126.109 105.491 123.532 106.374 120.352 106.374C118.21 106.374 116.351 105.978 114.761 105.184Z" fill="#297750"/>
<path fill-rule="evenodd" clip-rule="evenodd" d="M10.678 114.706C10.678 114.483 10.6869 114.099 10.9104 113.867C11.0892 113.662 11.3484 113.644 11.4646 113.644H11.5987V112.609H11.3931C10.6691 112.609 10.2132 112.948 9.98973 113.207C9.4981 113.76 9.50703 114.519 9.50703 114.804V116.384C9.50703 116.634 9.49809 117.018 9.39082 117.268C9.25674 117.607 8.93495 117.901 8.40756 117.892V119.062C8.93495 119.053 9.26568 119.347 9.39082 119.686C9.49809 119.936 9.50703 120.32 9.50703 120.57V122.15C9.50703 122.587 9.54279 123.248 9.98973 123.747C10.3294 124.122 10.8836 124.345 11.3931 124.345H11.5987V123.283H11.4646C10.7406 123.283 10.6691 122.614 10.6691 122.221V120.534C10.6691 119.838 10.5618 119.356 10.3562 119.035C10.24 118.856 9.98972 118.58 9.55173 118.464C9.98972 118.348 10.24 118.071 10.3562 117.892C10.5618 117.571 10.6691 117.089 10.6691 116.393V114.706H10.678Z" fill="#4A4A4A"/>
<path fill-rule="evenodd" clip-rule="evenodd" d="M121.097 116.393C121.097 117.089 121.204 117.571 121.41 117.892C121.526 118.071 121.562 118.348 122 118.464C121.562 118.58 121.526 118.856 121.41 119.035C121.204 119.356 121.097 119.838 121.097 120.534V122.221C121.097 122.614 121.035 123.283 120.302 123.283H120.167V124.319H120.373C120.883 124.319 121.437 124.096 121.776 123.721C122.214 123.23 122.259 122.569 122.259 122.123V120.543C122.259 120.293 122.268 119.91 122.375 119.66C122.509 119.321 122.831 119.026 123.359 119.035V117.866C122.831 117.875 122.5 117.58 122.375 117.241C122.268 116.991 122.259 116.607 122.259 116.357V114.777C122.259 114.492 122.268 113.742 121.776 113.18C121.553 112.921 121.106 112.582 120.373 112.582H120.167V113.644H120.302C120.418 113.644 120.677 113.653 120.856 113.867C121.079 114.099 121.088 114.492 121.088 114.706V116.393H121.097Z" fill="#4A4A4A"/>
<path d="M20.5731 124.283C17.8468 124.283 16.363 123.194 16.1127 121.007H17.2748C17.3641 121.677 17.6681 122.194 18.1954 122.578C18.7228 122.953 19.5094 123.141 20.5552 123.141C21.0647 123.141 21.5027 123.087 21.8871 122.98C22.2714 122.873 22.5843 122.721 22.8435 122.534C23.0938 122.346 23.2815 122.123 23.4066 121.864C23.5318 121.605 23.5943 121.329 23.5943 121.034C23.5943 120.74 23.5407 120.49 23.4424 120.276C23.344 120.061 23.1563 119.874 22.8971 119.704C22.6379 119.535 22.2714 119.365 21.8245 119.213C21.3686 119.053 20.7876 118.883 20.0815 118.705C19.4826 118.553 18.9463 118.392 18.4725 118.232C18.0077 118.071 17.6055 117.866 17.2926 117.634C16.9708 117.393 16.7295 117.107 16.5686 116.768C16.4077 116.429 16.3273 116.009 16.3273 115.5C16.3273 115.063 16.4167 114.661 16.6044 114.304C16.7921 113.947 17.0513 113.644 17.382 113.394C17.7127 113.144 18.1239 112.957 18.5977 112.823C19.0714 112.689 19.6077 112.626 20.1887 112.626C21.5116 112.626 22.5128 112.85 23.1921 113.296C23.8714 113.742 24.2558 114.438 24.3362 115.393H23.1742C23.0938 114.84 22.8345 114.429 22.3787 114.171C21.9228 113.912 21.2524 113.778 20.3496 113.778C19.9295 113.778 19.5452 113.814 19.1876 113.894C18.8301 113.974 18.5262 114.081 18.2759 114.233C18.0256 114.385 17.82 114.563 17.677 114.795C17.534 115.018 17.4625 115.277 17.4625 115.563C17.4625 115.724 17.4893 115.893 17.5519 116.063C17.6055 116.232 17.7574 116.411 17.9898 116.589C18.2222 116.768 18.5708 116.955 19.0446 117.143C19.5094 117.33 20.153 117.526 20.9664 117.723C21.61 117.884 22.1642 118.053 22.6379 118.232C23.1116 118.41 23.5049 118.615 23.8178 118.865C24.1306 119.106 24.363 119.392 24.515 119.713C24.667 120.035 24.7474 120.418 24.7474 120.856C24.7474 121.347 24.6491 121.802 24.4524 122.221C24.2558 122.65 23.9787 123.016 23.6211 123.319C23.2636 123.623 22.8256 123.864 22.3072 124.042C21.7887 124.194 21.2077 124.283 20.5731 124.283Z" fill="#4A4A4A"/>
<path d="M39.7197 112.903L35.6794 124.203C35.4291 124.872 35.1788 125.461 34.9285 125.961C34.6783 126.47 34.4012 126.889 34.1062 127.237C33.8112 127.577 33.4805 127.835 33.1229 128.014C32.7654 128.183 32.3631 128.273 31.9251 128.273C31.7732 128.273 31.6212 128.264 31.4782 128.255C31.3352 128.246 31.1922 128.228 31.0491 128.21V126.979C31.1296 126.987 31.21 126.996 31.2905 126.996C31.3799 126.996 31.4693 126.996 31.5586 126.996C32.2201 126.996 32.7833 126.773 33.2481 126.318C33.7129 125.863 34.1241 125.131 34.4816 124.105L30.2536 112.912H31.514L35.1431 122.587L38.4683 112.912H39.7197V112.903Z" fill="#4A4A4A"/>
<path d="M49.5253 124.283C46.7991 124.283 45.3153 123.194 45.065 121.007H46.227C46.3164 121.677 46.6203 122.194 47.1477 122.578C47.6751 122.953 48.4616 123.141 49.5075 123.141C50.017 123.141 50.455 123.087 50.8393 122.98C51.2237 122.873 51.5365 122.721 51.7958 122.534C52.046 122.346 52.2337 122.123 52.3589 121.864C52.484 121.605 52.5466 121.329 52.5466 121.034C52.5466 120.74 52.493 120.49 52.3946 120.276C52.2963 120.061 52.1086 119.874 51.8494 119.704C51.5902 119.535 51.2237 119.365 50.7767 119.213C50.3209 119.053 49.7399 118.883 49.0337 118.705C48.4348 118.553 47.8985 118.392 47.4248 118.232C46.96 118.071 46.5577 117.866 46.2449 117.634C45.9231 117.393 45.6817 117.107 45.5208 116.768C45.3599 116.429 45.2795 116.009 45.2795 115.5C45.2795 115.063 45.3689 114.661 45.5566 114.304C45.7443 113.947 46.0035 113.644 46.3343 113.394C46.665 113.144 47.0762 112.957 47.5499 112.823C48.0237 112.689 48.56 112.626 49.141 112.626C50.4639 112.626 51.465 112.85 52.1444 113.296C52.8237 113.742 53.2081 114.438 53.2885 115.393H52.1265C52.046 114.84 51.7868 114.429 51.3309 114.171C50.8751 113.912 50.2047 113.778 49.3019 113.778C48.8818 113.778 48.4974 113.814 48.1399 113.894C47.7823 113.974 47.4784 114.081 47.2281 114.233C46.9778 114.385 46.7723 114.563 46.6292 114.795C46.4862 115.018 46.4147 115.277 46.4147 115.563C46.4147 115.724 46.4415 115.893 46.5041 116.063C46.5577 116.232 46.7097 116.411 46.9421 116.589C47.1745 116.768 47.5231 116.955 47.9968 117.143C48.4617 117.33 49.1052 117.526 49.9187 117.723C50.5622 117.884 51.1164 118.053 51.5902 118.232C52.0639 118.41 52.4572 118.615 52.7701 118.865C53.0829 119.106 53.3153 119.392 53.4673 119.713C53.6192 120.035 53.6997 120.418 53.6997 120.856C53.6997 121.347 53.6014 121.802 53.4047 122.221C53.2081 122.65 52.931 123.016 52.5734 123.319C52.2159 123.623 51.7779 123.864 51.2594 124.042C50.741 124.221 50.1689 124.283 49.5253 124.283Z" fill="#4A4A4A"/>
<path d="M63.9344 124.096C63.7736 124.113 63.6127 124.131 63.4428 124.14C63.2819 124.149 63.121 124.158 62.9512 124.158C62.4506 124.158 62.0573 124.087 61.7534 123.953C61.4495 123.819 61.226 123.605 61.0651 123.328C60.9042 123.051 60.8059 122.703 60.7612 122.293C60.7165 121.873 60.6897 121.391 60.6897 120.838V114.055H59.2685V112.912H60.6897V110.002H61.8339V112.912H63.6574V114.055H61.8339V120.945C61.8339 121.4 61.8696 121.766 61.9322 122.043C61.9948 122.311 62.102 122.525 62.2361 122.676C62.3702 122.828 62.5311 122.917 62.7277 122.962C62.9244 123.007 63.1478 123.025 63.3981 123.025C63.5054 123.025 63.5948 123.025 63.6663 123.025C63.7467 123.025 63.8272 123.016 63.9255 123.007V124.096H63.9344Z" fill="#4A4A4A"/>
<path d="M74.3926 124.283C73.615 124.283 72.9178 124.149 72.2831 123.89C71.6485 123.631 71.1122 123.248 70.6563 122.748C70.2004 122.248 69.8518 121.632 69.6016 120.909C69.3513 120.186 69.2261 119.356 69.2261 118.428C69.2261 117.526 69.3423 116.723 69.5837 116C69.825 115.277 70.1647 114.67 70.6027 114.171C71.0407 113.671 71.5591 113.287 72.1669 113.019C72.7658 112.751 73.4362 112.617 74.1781 112.617C74.929 112.617 75.6172 112.751 76.2251 113.019C76.8329 113.287 77.3603 113.671 77.7893 114.171C78.2184 114.67 78.5491 115.286 78.7815 116C79.0139 116.723 79.1212 117.535 79.1212 118.437V118.696H70.3792C70.4328 119.445 70.5759 120.106 70.7993 120.659C71.0228 121.213 71.3088 121.677 71.6574 122.043C72.015 122.409 72.4172 122.685 72.882 122.864C73.3468 123.042 73.8474 123.132 74.3926 123.132C74.777 123.132 75.1614 123.087 75.5368 122.998C75.9212 122.908 76.2698 122.775 76.5737 122.587C76.8865 122.409 77.1458 122.185 77.3513 121.918C77.5659 121.65 77.6821 121.347 77.7268 120.998H78.862C78.7547 121.525 78.567 121.989 78.2989 122.391C78.0307 122.792 77.7 123.141 77.3067 123.417C76.9134 123.703 76.4664 123.908 75.9748 124.051C75.4921 124.212 74.9558 124.283 74.3926 124.283ZM77.9681 117.553C77.7804 116.286 77.3424 115.331 76.672 114.706C76.0016 114.072 75.1703 113.76 74.1871 113.76C73.6955 113.76 73.2485 113.84 72.8284 113.992C72.4083 114.144 72.0329 114.376 71.7021 114.697C71.3714 115.009 71.0943 115.411 70.8708 115.884C70.6474 116.357 70.4865 116.92 70.3882 117.562H77.9681V117.553Z" fill="#4A4A4A"/>
<path d="M100.315 123.997H99.1706V116.75C99.1706 115.688 99.0097 114.929 98.6789 114.456C98.3482 113.992 97.7672 113.751 96.9359 113.751C96.3281 113.751 95.7292 113.939 95.1482 114.313C94.5672 114.688 94.004 115.224 93.4677 115.911V123.997H92.3235V116.75C92.3235 116.223 92.2878 115.768 92.2163 115.393C92.1448 115.01 92.0196 114.697 91.8498 114.465C91.68 114.224 91.4476 114.046 91.1705 113.939C90.8844 113.822 90.5448 113.769 90.1336 113.769C89.5347 113.769 88.9537 113.956 88.4174 114.331C87.8721 114.706 87.3268 115.242 86.7726 115.929V123.997H85.6285V112.903H86.7726V114.545C87.157 114.117 87.5146 113.778 87.8542 113.519C88.1939 113.269 88.5157 113.073 88.8107 112.939C89.1146 112.805 89.4006 112.716 89.6688 112.671C89.9369 112.626 90.2051 112.609 90.4464 112.609C91.1615 112.609 91.7783 112.778 92.2789 113.108C92.7884 113.439 93.1548 113.956 93.3872 114.644C93.6733 114.242 93.9772 113.912 94.299 113.653C94.6208 113.394 94.9426 113.18 95.2733 113.028C95.604 112.876 95.9348 112.769 96.2655 112.707C96.5962 112.644 96.9269 112.618 97.2398 112.618C99.2957 112.618 100.324 113.965 100.324 116.652V123.997H100.315Z" fill="#4A4A4A"/>
<path d="M111.122 124.283C108.395 124.283 106.911 123.194 106.661 121.007H107.823C107.913 121.677 108.216 122.194 108.744 122.578C109.271 122.953 110.058 123.141 111.104 123.141C111.613 123.141 112.051 123.087 112.436 122.98C112.82 122.873 113.133 122.721 113.392 122.534C113.642 122.346 113.83 122.123 113.955 121.864C114.08 121.605 114.143 121.329 114.143 121.034C114.143 120.74 114.089 120.49 113.991 120.276C113.892 120.061 113.705 119.874 113.446 119.704C113.186 119.535 112.82 119.365 112.373 119.213C111.917 119.053 111.336 118.883 110.63 118.705C110.031 118.553 109.495 118.392 109.021 118.232C108.556 118.071 108.154 117.866 107.841 117.634C107.519 117.393 107.278 117.107 107.117 116.768C106.956 116.429 106.876 116.009 106.876 115.5C106.876 115.063 106.965 114.661 107.153 114.304C107.34 113.947 107.6 113.644 107.93 113.394C108.261 113.144 108.672 112.957 109.146 112.823C109.62 112.689 110.156 112.626 110.737 112.626C112.06 112.626 113.061 112.85 113.741 113.296C114.42 113.742 114.804 114.438 114.885 115.393H113.723C113.642 114.84 113.383 114.429 112.927 114.171C112.471 113.912 111.801 113.778 110.898 113.778C110.478 113.778 110.094 113.814 109.736 113.894C109.378 113.974 109.075 114.081 108.824 114.233C108.574 114.385 108.368 114.563 108.225 114.795C108.082 115.018 108.011 115.277 108.011 115.563C108.011 115.724 108.038 115.893 108.1 116.063C108.154 116.232 108.306 116.411 108.538 116.589C108.771 116.768 109.119 116.955 109.593 117.143C110.058 117.33 110.701 117.526 111.515 117.723C112.158 117.884 112.713 118.053 113.186 118.232C113.66 118.41 114.053 118.615 114.366 118.865C114.679 119.106 114.912 119.392 115.063 119.713C115.215 120.035 115.296 120.418 115.296 120.856C115.296 121.347 115.198 121.802 115.001 122.221C114.804 122.65 114.527 123.016 114.17 123.319C113.812 123.623 113.374 123.864 112.856 124.042C112.337 124.221 111.765 124.283 111.122 124.283Z" fill="#4A4A4A"/>
</svg>
